<!DOCTYPE svg PUBLIC "-//W3C//DTD SVG 1.1//EN" "http://www.w3.org/Graphics/SVG/1.1/DTD/svg11.dtd">
<!-- Uploaded to: SVG Repo, www.svgrepo.com, Transformed by: SVG Repo Mixer Tools -->
<svg width="203px" height="203px" viewBox="-266.24 -266.24 1556.48 1556.48" class="icon" version="1.1" xmlns="http://www.w3.org/2000/svg" fill="#7ed0ecdf" stroke="#7ed0ecdf">
<g id="SVGRepo_bgCarrier" stroke-width="0">
<rect x="-266.24" y="-266.24" width="1556.48" height="1556.48" rx="778.24" fill="#7ed0ec8a" strokewidth="0"/>
</g>
<g id="SVGRepo_tracerCarrier" stroke-linecap="round" stroke-linejoin="round"/>
<g id="SVGRepo_iconCarrier">
<path d="M129.6 992h608v-163.2h156.8V32H129.6z" fill="#7ed0ec8a"/>
<path d="M881.6 859.2h-112v112l0.016-0.016z" fill="#7ed0ec8a"/>
<path d="M97.6 0v1024h665.6l163.2-163.2V0H97.6z m672 971.2v-112h112l-112 112z m124.8-142.4h-156.8V992h-608V32h764.8v796.8z" fill=""/>
<path d="M243.2 152h536v32h-536zM243.2 264h536v32h-536zM243.2 376h536v32h-536zM243.2 488h536v32h-536zM243.2 600h536v32h-536zM243.2 712h536v32h-536z" fill=""/>
</g>
</svg>