<svg version="1.1" id="Layer_1" xmlns="http://www.w3.org/2000/svg" xmlns:xlink="http://www.w3.org/1999/xlink" x="0px" y="0px"
	 width="100%" viewBox="0 0 362 362" enable-background="new 0 0 362 362" xml:space="preserve">
<path fill="#FFFFFE" opacity="1.000000" stroke="none" 
	d="
M1.000000,133.000000 
	C1.000000,88.681786 1.000000,44.863571 1.000000,1.022679 
	C121.609924,1.022679 242.219849,1.022679 362.914886,1.022679 
	C362.914886,121.568253 362.914886,242.136597 362.914886,362.852478 
	C242.333466,362.852478 121.666756,362.852478 1.000000,362.852478 
	C1.000000,286.446747 1.000000,209.973373 1.000000,133.000000 
M175.980942,300.096344 
	C181.666595,298.145874 187.352249,296.195435 193.648621,294.643921 
	C194.101562,297.395294 194.803467,300.132874 194.956940,302.900848 
	C195.303650,309.153595 198.186111,313.213501 204.064743,315.635651 
	C210.204834,318.165588 216.027878,316.866577 221.568573,314.559082 
	C228.770340,311.559814 229.599380,304.230225 230.827759,297.815948 
	C231.935028,292.034149 231.725952,286.000305 233.009598,280.023865 
	C235.508408,280.015625 238.007370,279.986572 240.506012,280.003265 
	C246.681870,280.044556 250.449753,282.549561 251.560730,288.508118 
	C252.555161,293.841461 253.039734,299.371582 252.880173,304.789307 
	C252.726959,309.992584 254.905609,313.208954 259.081818,315.651794 
	C265.112457,319.179382 271.108704,319.967712 278.211884,318.263275 
	C285.794525,316.443756 291.774292,311.534607 292.502441,303.618073 
	C293.653168,291.107635 294.497284,278.557404 296.078491,266.101074 
	C298.123505,249.990845 303.186249,234.708679 309.998596,219.968842 
	C314.078430,211.141296 317.072937,201.887054 316.897278,192.063065 
	C316.771057,185.006775 315.976074,177.931030 315.014740,170.927765 
	C313.117157,157.104019 306.492340,145.212646 298.443390,134.211334 
	C293.892395,127.991020 288.392029,122.579918 293.018677,114.128349 
	C293.903564,112.511894 294.885986,110.948830 295.823425,109.361145 
	C296.898529,111.735062 297.287537,113.655998 296.827728,115.345993 
	C295.263000,121.097206 297.042389,126.073715 299.923584,130.853455 
	C303.913269,137.472092 318.184906,138.287643 322.988037,132.207809 
	C327.101379,127.001076 327.143188,118.224579 322.998749,112.781776 
	C320.443878,109.426514 317.774536,106.158432 315.200928,102.907257 
	C317.036438,98.318336 321.243347,98.721901 324.893646,97.782333 
	C326.999756,97.240234 330.308472,96.145164 330.551270,94.832100 
	C330.902679,92.932053 329.446045,90.146049 327.912231,88.556877 
	C323.993500,84.496597 311.165283,85.942635 307.668518,91.445694 
	C304.959381,95.709274 301.751160,95.936378 297.622742,96.055923 
	C291.351044,96.237541 285.508270,97.488609 281.740295,103.522675 
	C280.314850,105.805389 277.848297,107.437988 275.188751,109.092537 
	C272.356842,107.320892 269.524963,105.549255 266.147552,103.436356 
	C269.084869,102.843155 271.247772,102.577812 273.305145,101.960632 
	C281.435242,99.521744 282.959656,95.667648 278.503998,89.176300 
	C278.377106,88.991417 278.581665,88.579025 278.466644,89.283615 
	C283.471771,87.753189 288.709686,87.334045 292.431732,84.739944 
	C298.199890,80.719780 292.957306,76.367729 290.622070,72.437325 
	C296.397705,70.780045 303.339172,72.759560 305.912628,65.536156 
	C308.180084,59.171772 303.349030,55.893944 299.351562,52.417999 
	C303.517761,51.915180 307.291077,51.675922 310.973358,50.965275 
	C316.653534,49.869049 318.593628,45.091152 315.666840,40.049797 
	C311.986023,33.709614 305.872162,30.792877 299.302521,28.809395 
	C282.482880,23.731272 265.593231,23.854010 248.352066,27.277374 
	C236.560760,29.618629 227.114899,35.957043 218.446503,43.120838 
	C210.303314,49.850574 206.596420,59.962700 207.157745,70.673988 
	C207.602219,79.155350 209.465454,87.562363 210.033890,96.363914 
	C202.597992,96.845184 195.162079,97.326454 187.919540,97.118240 
	C185.925201,90.462616 178.841003,93.342110 174.130951,90.106400 
	C176.223373,88.898651 177.815338,88.133896 179.229645,87.121025 
	C180.708160,86.062157 182.103134,84.850838 183.381531,83.555115 
	C187.064423,79.822304 186.963348,78.191734 183.154495,74.736732 
	C182.275833,73.939705 181.611038,72.906921 180.398392,71.438347 
	C186.698151,71.002449 191.809158,69.312477 193.660751,63.928383 
	C195.336639,59.055256 192.071960,55.678040 186.666809,53.850761 
	C192.204758,50.177700 199.034866,49.756733 199.850357,42.734329 
	C200.754593,34.947712 193.837723,34.183167 188.060959,31.525387 
	C192.724106,29.663813 196.621597,28.868826 199.594559,26.766443 
	C206.273941,22.043005 207.074463,18.431152 200.201828,14.240160 
	C196.038147,11.701108 190.598953,10.439139 185.647202,10.168211 
	C173.497650,9.503465 161.883118,12.449857 150.299835,16.246983 
	C135.653854,21.048092 123.714912,28.808529 114.213768,41.154602 
	C105.084305,53.017708 102.418556,65.617706 108.088837,79.123474 
	C112.866959,90.504242 119.282768,101.197441 124.624336,112.764305 
	C122.412018,114.147743 120.284210,115.695892 117.971054,116.882812 
	C111.779495,120.059776 105.499802,123.064499 99.273285,126.174019 
	C96.794159,127.412094 94.820900,127.628922 92.905014,124.917389 
	C90.769142,121.894508 88.660858,118.381485 83.579453,118.327568 
	C81.033875,117.951500 77.989716,116.506386 76.042953,117.414307 
	C71.512207,119.527298 66.591660,122.008659 63.493286,125.727364 
	C57.795898,132.565430 53.069386,140.262329 48.393600,147.880768 
	C46.024986,151.740082 44.232040,156.083252 42.921844,160.431534 
	C40.871689,167.235596 44.623352,171.796997 52.013893,172.883942 
	C51.867512,174.425095 51.721130,175.966248 51.565300,177.606903 
	C70.154778,173.504761 90.352058,189.983002 88.056282,208.372025 
	C87.567284,212.288849 86.701523,216.158646 85.609245,220.570633 
	C83.112915,223.734360 80.616585,226.898102 77.433716,230.255051 
	C64.162834,239.841614 40.648365,236.112396 30.193930,214.625092 
	C30.029648,217.107529 30.412619,219.402817 29.666531,221.239441 
	C25.784395,230.795914 28.838903,240.034042 31.256258,249.013641 
	C36.245823,267.547974 49.250340,279.877380 64.885452,289.896515 
	C66.180542,290.726410 67.724304,292.323151 67.828445,293.666260 
	C68.430511,301.430267 68.586929,309.227600 68.989899,317.008667 
	C69.272537,322.466431 69.470215,327.945160 70.129852,333.362885 
	C71.146309,341.711334 74.874023,345.811218 82.314842,346.829163 
	C85.419792,347.253937 88.717110,347.392731 91.770103,346.822205 
	C96.706352,345.899780 101.524742,343.760376 104.329071,339.570801 
	C105.903992,337.217987 105.760139,333.562683 105.954399,330.466797 
	C106.491341,321.909546 106.798988,313.337921 107.186493,305.004242 
	C116.563644,305.913086 125.563057,306.785309 134.944763,307.694580 
	C134.944763,317.374908 134.854294,327.000000 134.970963,336.622589 
	C135.081100,345.707123 137.788162,349.665283 145.725143,352.296478 
	C148.007935,353.053253 150.613342,352.810547 152.927032,353.505157 
	C160.664810,355.828125 166.626358,351.806366 171.570572,347.216278 
	C173.639816,345.295166 172.839661,340.293701 173.384109,336.698792 
	C173.424515,336.431976 173.789185,336.214264 174.620865,336.094849 
	C174.752335,334.132751 174.975464,332.171814 174.999878,330.208405 
	C175.125061,320.137024 175.199112,310.065033 175.980942,300.096344 
M59.599010,185.072220 
	C47.232658,185.939240 40.057968,193.496414 39.983253,205.733704 
	C39.919292,216.209442 47.245255,223.921677 58.314892,225.031921 
	C70.766052,226.280746 79.231743,220.041962 81.263092,208.120331 
	C83.521767,194.864563 75.680603,186.168442 59.599010,185.072220 
z"/>
<path fill="#FFD2B1" opacity="1.000000" stroke="none" 
	d="
M174.003113,335.973694 
	C173.789185,336.214264 173.424515,336.431976 173.384109,336.698792 
	C172.839661,340.293701 173.639816,345.295166 171.570572,347.216278 
	C166.626358,351.806366 160.664810,355.828125 152.927032,353.505157 
	C150.613342,352.810547 148.007935,353.053253 145.725143,352.296478 
	C137.788162,349.665283 135.081100,345.707123 134.970963,336.622589 
	C134.854294,327.000000 134.944763,317.374908 134.944763,307.694580 
	C125.563057,306.785309 116.563644,305.913086 107.186493,305.004242 
	C106.798988,313.337921 106.491341,321.909546 105.954399,330.466797 
	C105.760139,333.562683 105.903992,337.217987 104.329071,339.570801 
	C101.524742,343.760376 96.706352,345.899780 91.770103,346.822205 
	C88.717110,347.392731 85.419792,347.253937 82.314842,346.829163 
	C74.874023,345.811218 71.146309,341.711334 70.129852,333.362885 
	C69.470215,327.945160 69.272537,322.466431 68.989899,317.008667 
	C68.586929,309.227600 68.430511,301.430267 67.828445,293.666260 
	C67.724304,292.323151 66.180542,290.726410 64.885452,289.896515 
	C49.250340,279.877380 36.245823,267.547974 31.256258,249.013641 
	C28.838903,240.034042 25.784395,230.795914 29.666531,221.239441 
	C30.412619,219.402817 30.029648,217.107529 30.193930,214.625092 
	C40.648365,236.112396 64.162834,239.841614 77.769653,230.549957 
	C77.964523,234.514786 73.689095,238.322144 78.446747,242.317596 
	C78.422882,248.635788 78.235870,254.472076 78.462318,260.292267 
	C78.925529,272.198029 82.076271,283.276520 89.230118,293.015167 
	C93.324425,298.588776 95.121376,298.668152 99.194290,292.924744 
	C101.106323,290.228455 102.760803,287.284821 104.108688,284.264374 
	C110.109871,270.816498 110.319725,256.458130 110.728699,241.787842 
	C111.284218,239.723862 111.943893,237.940140 111.781097,236.234924 
	C110.330688,221.042618 100.566978,214.958160 86.009346,220.050110 
	C86.701523,216.158646 87.567284,212.288849 88.056282,208.372025 
	C90.352058,189.983002 70.154778,173.504761 51.565300,177.606903 
	C51.721130,175.966248 51.867512,174.425095 52.412628,172.431396 
	C63.953686,171.747559 72.875023,167.450607 78.156296,157.327042 
	C79.174408,155.375473 78.489555,152.535477 78.590309,150.105331 
	C76.255943,150.715958 73.590614,150.808243 71.655342,152.043945 
	C67.484085,154.707306 63.889339,158.299179 59.642796,160.806839 
	C57.859337,161.860001 55.021713,161.128006 52.663322,161.207565 
	C52.882751,158.886734 52.403118,156.168396 53.454010,154.320374 
	C56.484634,148.990921 60.355640,144.144852 63.487045,138.865982 
	C68.546593,130.336670 72.763893,121.084732 83.990028,118.965073 
	C88.660858,118.381485 90.769142,121.894508 92.905014,124.917389 
	C94.820900,127.628922 96.794159,127.412094 99.273285,126.174019 
	C105.499802,123.064499 111.779495,120.059776 117.971054,116.882812 
	C120.284210,115.695892 122.412018,114.147743 125.189911,112.489670 
	C145.652435,104.143799 166.280594,99.217720 187.726181,97.807716 
	C195.162079,97.326454 202.597992,96.845184 210.520645,96.573151 
	C213.628143,107.885887 211.605591,118.215279 205.662979,127.819168 
	C201.429535,134.660889 202.315018,141.316559 206.843445,147.354675 
	C210.918030,152.787659 217.111420,151.848694 222.478088,150.210220 
	C236.420883,145.953384 250.258652,141.309280 263.950714,136.306290 
	C267.193665,135.121323 271.155762,132.378281 272.066864,129.492981 
	C272.751923,127.323502 269.085663,123.780006 267.410187,120.939262 
	C277.224854,116.451103 278.188782,115.224510 275.856293,109.366928 
	C277.848297,107.437988 280.314850,105.805389 281.740295,103.522675 
	C285.508270,97.488609 291.351044,96.237541 297.622742,96.055923 
	C301.751160,95.936378 304.959381,95.709274 307.668518,91.445694 
	C311.165283,85.942635 323.993500,84.496597 327.912231,88.556877 
	C329.446045,90.146049 330.902679,92.932053 330.551270,94.832100 
	C330.308472,96.145164 326.999756,97.240234 324.893646,97.782333 
	C321.243347,98.721901 317.036438,98.318336 315.200928,102.907257 
	C317.774536,106.158432 320.443878,109.426514 322.998749,112.781776 
	C327.143188,118.224579 327.101379,127.001076 322.988037,132.207809 
	C318.184906,138.287643 303.913269,137.472092 299.923584,130.853455 
	C297.042389,126.073715 295.263000,121.097206 296.827728,115.345993 
	C297.287537,113.655998 296.898529,111.735062 295.823425,109.361145 
	C294.885986,110.948830 293.903564,112.511894 293.018677,114.128349 
	C288.392029,122.579918 293.892395,127.991020 298.443390,134.211334 
	C306.492340,145.212646 313.117157,157.104019 315.014740,170.927765 
	C315.976074,177.931030 316.771057,185.006775 316.897278,192.063065 
	C317.072937,201.887054 314.078430,211.141296 309.998596,219.968842 
	C303.186249,234.708679 298.123505,249.990845 296.078491,266.101074 
	C294.497284,278.557404 293.653168,291.107635 292.502441,303.618073 
	C291.774292,311.534607 285.794525,316.443756 278.211884,318.263275 
	C271.108704,319.967712 265.112457,319.179382 259.081818,315.651794 
	C254.905609,313.208954 252.726959,309.992584 252.880173,304.789307 
	C253.039734,299.371582 252.555161,293.841461 251.560730,288.508118 
	C250.449753,282.549561 246.681870,280.044556 240.506012,280.003265 
	C238.007370,279.986572 235.508408,280.015625 232.278671,279.747589 
	C229.761581,279.359894 227.745285,278.649658 226.226288,279.233429 
	C215.661133,283.293640 205.186661,287.592255 194.730194,291.927979 
	C193.975586,292.240845 193.593307,293.451660 193.037918,294.244995 
	C187.352249,296.195435 181.666595,298.145874 175.181549,300.127441 
	C174.255829,312.096924 174.129471,324.035309 174.003113,335.973694 
M144.410477,255.269333 
	C155.580093,257.742615 169.934906,252.617249 176.039062,243.856674 
	C184.090225,232.301819 184.341660,220.225693 177.516953,208.175964 
	C171.506149,197.563293 161.677704,194.360092 149.959930,194.924973 
	C133.984787,195.695114 120.648346,207.263885 119.045731,222.216965 
	C117.278458,238.706375 126.413033,250.944366 144.410477,255.269333 
M201.818665,179.583984 
	C201.612274,181.395950 201.267853,183.204758 201.226440,185.020477 
	C201.120010,189.685181 199.842072,193.768829 195.062836,195.433075 
	C189.917435,197.224854 185.261230,195.438782 182.062286,191.431427 
	C177.826401,186.125107 173.971527,180.456375 170.499115,174.618484 
	C168.011063,170.435486 168.337921,166.129547 172.082504,162.265549 
	C173.182571,161.130402 173.087524,158.837082 173.540222,157.074554 
	C171.667572,156.820236 169.627792,155.960922 167.953201,156.423553 
	C162.650436,157.888443 159.161453,163.043900 158.929932,168.915909 
	C158.304276,184.784592 173.735367,204.677841 189.305771,208.075455 
	C198.674805,210.119858 207.395798,205.922684 209.688309,196.721756 
	C211.415176,189.791092 211.256531,182.323883 211.355133,175.087570 
	C211.393829,172.248444 210.316742,169.106201 208.842667,166.643845 
	C207.977646,165.198883 205.306427,164.167755 203.496277,164.236176 
	C202.584167,164.270660 201.152313,167.134506 201.060135,168.780823 
	C200.876099,172.067429 201.453812,175.396667 201.818665,179.583984 
M310.041840,112.255241 
	C308.076416,113.800911 306.504822,122.223839 308.224457,123.362534 
	C309.596588,124.271111 311.577484,124.596413 313.246796,124.495628 
	C313.691681,124.468773 314.578583,121.748276 314.228394,120.572464 
	C313.401825,117.797180 311.953094,115.207199 310.041840,112.255241 
z"/>
<path fill="#6F5045" opacity="1.000000" stroke="none" 
	d="
M187.822861,97.462982 
	C166.280594,99.217720 145.652435,104.143799 125.364578,112.205017 
	C119.282768,101.197441 112.866959,90.504242 108.088837,79.123474 
	C102.418556,65.617706 105.084305,53.017708 114.213768,41.154602 
	C123.714912,28.808529 135.653854,21.048092 150.299835,16.246983 
	C161.883118,12.449857 173.497650,9.503465 185.647202,10.168211 
	C190.598953,10.439139 196.038147,11.701108 200.201828,14.240160 
	C207.074463,18.431152 206.273941,22.043005 199.594559,26.766443 
	C196.621597,28.868826 192.724106,29.663813 188.060959,31.525387 
	C193.837723,34.183167 200.754593,34.947712 199.850357,42.734329 
	C199.034866,49.756733 192.204758,50.177700 186.666809,53.850761 
	C192.071960,55.678040 195.336639,59.055256 193.660751,63.928383 
	C191.809158,69.312477 186.698151,71.002449 180.398392,71.438347 
	C181.611038,72.906921 182.275833,73.939705 183.154495,74.736732 
	C186.963348,78.191734 187.064423,79.822304 183.381531,83.555115 
	C182.103134,84.850838 180.708160,86.062157 179.229645,87.121025 
	C177.815338,88.133896 176.223373,88.898651 174.130951,90.106400 
	C178.841003,93.342110 185.925201,90.462616 187.822861,97.462982 
z"/>
<path fill="#6F5045" opacity="1.000000" stroke="none" 
	d="
M275.522522,109.229729 
	C278.188782,115.224510 277.224854,116.451103 267.410187,120.939262 
	C269.085663,123.780006 272.751923,127.323502 272.066864,129.492981 
	C271.155762,132.378281 267.193665,135.121323 263.950714,136.306290 
	C250.258652,141.309280 236.420883,145.953384 222.478088,150.210220 
	C217.111420,151.848694 210.918030,152.787659 206.843445,147.354675 
	C202.315018,141.316559 201.429535,134.660889 205.662979,127.819168 
	C211.605591,118.215279 213.628143,107.885887 210.853043,96.392380 
	C209.465454,87.562363 207.602219,79.155350 207.157745,70.673988 
	C206.596420,59.962700 210.303314,49.850574 218.446503,43.120838 
	C227.114899,35.957043 236.560760,29.618629 248.352066,27.277374 
	C265.593231,23.854010 282.482880,23.731272 299.302521,28.809395 
	C305.872162,30.792877 311.986023,33.709614 315.666840,40.049797 
	C318.593628,45.091152 316.653534,49.869049 310.973358,50.965275 
	C307.291077,51.675922 303.517761,51.915180 299.351562,52.417999 
	C303.349030,55.893944 308.180084,59.171772 305.912628,65.536156 
	C303.339172,72.759560 296.397705,70.780045 290.622070,72.437325 
	C292.957306,76.367729 298.199890,80.719780 292.431732,84.739944 
	C288.709686,87.334045 283.471771,87.753189 278.466644,89.283615 
	C278.581665,88.579025 278.377106,88.991417 278.503998,89.176300 
	C282.959656,95.667648 281.435242,99.521744 273.305145,101.960632 
	C271.247772,102.577812 269.084869,102.843155 266.147552,103.436356 
	C269.524963,105.549255 272.356842,107.320892 275.522522,109.229729 
M273.390564,30.999964 
	C269.769409,31.330490 266.150635,31.690393 262.526611,31.986063 
	C251.459076,32.889023 241.014023,35.915989 231.378067,41.436707 
	C229.002716,42.797607 227.042465,44.883030 224.308365,47.110329 
	C234.162857,49.897106 239.012482,53.551735 239.780624,59.088245 
	C240.754074,66.104691 235.213989,68.968109 229.911514,71.919716 
	C245.061829,79.420677 244.205856,91.220467 234.281448,95.460030 
	C238.647949,99.129654 245.204880,101.229553 244.891037,108.132713 
	C244.552505,115.579018 236.866364,115.235458 231.989426,118.518990 
	C238.494064,123.350502 245.648621,124.145576 252.645752,123.585815 
	C255.152390,123.385277 258.279572,119.955055 259.408661,117.276146 
	C260.197998,115.403282 258.599701,111.923553 257.106781,109.855141 
	C255.556519,107.707245 252.849442,106.394264 250.617661,104.692833 
	C265.869873,95.456329 266.002167,95.064751 257.455383,83.009216 
	C263.556427,83.415451 268.375061,81.411919 270.462585,75.798965 
	C272.829132,69.435654 267.022339,67.129379 263.127930,63.818497 
	C267.802338,62.841553 272.210907,62.569344 276.001221,60.896378 
	C278.466461,59.808250 281.533051,56.694363 281.553741,54.462341 
	C281.572296,52.455971 277.944885,50.230152 275.643707,48.469818 
	C274.564514,47.644249 272.821594,47.686291 270.181366,47.043434 
	C274.354919,45.320751 277.577423,44.577244 280.055725,42.797432 
	C282.385590,41.124184 283.929840,38.356991 285.819763,36.071114 
	C283.619110,34.578594 281.535339,32.849369 279.173523,31.683233 
	C277.779236,30.994799 275.944733,31.197966 273.390564,30.999964 
z"/>
<path fill="#323434" opacity="1.000000" stroke="none" 
	d="
M60.040199,185.072449 
	C75.680603,186.168442 83.521767,194.864563 81.263092,208.120331 
	C79.231743,220.041962 70.766052,226.280746 58.314892,225.031921 
	C47.245255,223.921677 39.919292,216.209442 39.983253,205.733704 
	C40.057968,193.496414 47.232658,185.939240 60.040199,185.072449 
z"/>
<path fill="#FFA9A8" opacity="1.000000" stroke="none" 
	d="
M193.343262,294.444458 
	C193.593307,293.451660 193.975586,292.240845 194.730194,291.927979 
	C205.186661,287.592255 215.661133,283.293640 226.226288,279.233429 
	C227.745285,278.649658 229.761581,279.359894 231.822586,279.774475 
	C231.725952,286.000305 231.935028,292.034149 230.827759,297.815948 
	C229.599380,304.230225 228.770340,311.559814 221.568573,314.559082 
	C216.027878,316.866577 210.204834,318.165588 204.064743,315.635651 
	C198.186111,313.213501 195.303650,309.153595 194.956940,302.900848 
	C194.803467,300.132874 194.101562,297.395294 193.343262,294.444458 
z"/>
<path fill="#E75591" opacity="1.000000" stroke="none" 
	d="
M83.784744,118.646317 
	C72.763893,121.084732 68.546593,130.336670 63.487045,138.865982 
	C60.355640,144.144852 56.484634,148.990921 53.454010,154.320374 
	C52.403118,156.168396 52.882751,158.886734 52.663322,161.207565 
	C55.021713,161.128006 57.859337,161.860001 59.642796,160.806839 
	C63.889339,158.299179 67.484085,154.707306 71.655342,152.043945 
	C73.590614,150.808243 76.255943,150.715958 78.590309,150.105331 
	C78.489555,152.535477 79.174408,155.375473 78.156296,157.327042 
	C72.875023,167.450607 63.953686,171.747559 52.376877,172.052399 
	C44.623352,171.796997 40.871689,167.235596 42.921844,160.431534 
	C44.232040,156.083252 46.024986,151.740082 48.393600,147.880768 
	C53.069386,140.262329 57.795898,132.565430 63.493286,125.727364 
	C66.591660,122.008659 71.512207,119.527298 76.042953,117.414307 
	C77.989716,116.506386 81.033875,117.951500 83.784744,118.646317 
z"/>
<path fill="#FDB906" opacity="1.000000" stroke="none" 
	d="
M78.470741,241.828384 
	C73.689095,238.322144 77.964523,234.514786 78.112930,230.453369 
	C80.616585,226.898102 83.112915,223.734360 85.809296,220.310364 
	C100.566978,214.958160 110.330688,221.042618 111.781097,236.234924 
	C111.943893,237.940140 111.284218,239.723862 110.371628,241.808258 
	C99.279190,245.585678 88.869972,244.199402 78.470741,241.828384 
z"/>
<path fill="#0C0C0C" opacity="1.000000" stroke="none" 
	d="
M174.311981,336.034302 
	C174.129471,324.035309 174.255829,312.096924 174.836609,300.075867 
	C175.199112,310.065033 175.125061,320.137024 174.999878,330.208405 
	C174.975464,332.171814 174.752335,334.132751 174.311981,336.034302 
z"/>
<path fill="#FDFBFB" opacity="1.000000" stroke="none" 
	d="
M143.996246,255.179291 
	C126.413033,250.944366 117.278458,238.706375 119.045731,222.216965 
	C120.648346,207.263885 133.984787,195.695114 149.959930,194.924973 
	C161.677704,194.360092 171.506149,197.563293 177.516953,208.175964 
	C184.341660,220.225693 184.090225,232.301819 176.039062,243.856674 
	C169.934906,252.617249 155.580093,257.742615 143.996246,255.179291 
M154.065201,245.049179 
	C165.852753,242.490265 172.233795,234.069962 170.850723,222.899368 
	C169.427414,211.403748 160.524506,203.656174 148.980774,203.867477 
	C137.798340,204.072159 129.259995,212.064133 128.478790,223.057510 
	C127.527962,236.437912 138.050308,245.840836 154.065201,245.049179 
z"/>
<path fill="#323130" opacity="1.000000" stroke="none" 
	d="
M78.446747,242.317596 
	C88.869972,244.199402 99.279190,245.585678 110.094391,242.124908 
	C110.319725,256.458130 110.109871,270.816498 104.108688,284.264374 
	C102.760803,287.284821 101.106323,290.228455 99.194290,292.924744 
	C95.121376,298.668152 93.324425,298.588776 89.230118,293.015167 
	C82.076271,283.276520 78.925529,272.198029 78.462318,260.292267 
	C78.235870,254.472076 78.422882,248.635788 78.446747,242.317596 
z"/>
<path fill="#E75390" opacity="1.000000" stroke="none" 
	d="
M201.767792,179.146149 
	C201.453812,175.396667 200.876099,172.067429 201.060135,168.780823 
	C201.152313,167.134506 202.584167,164.270660 203.496277,164.236176 
	C205.306427,164.167755 207.977646,165.198883 208.842667,166.643845 
	C210.316742,169.106201 211.393829,172.248444 211.355133,175.087570 
	C211.256531,182.323883 211.415176,189.791092 209.688309,196.721756 
	C207.395798,205.922684 198.674805,210.119858 189.305771,208.075455 
	C173.735367,204.677841 158.304276,184.784592 158.929932,168.915909 
	C159.161453,163.043900 162.650436,157.888443 167.953201,156.423553 
	C169.627792,155.960922 171.667572,156.820236 173.540222,157.074554 
	C173.087524,158.837082 173.182571,161.130402 172.082504,162.265549 
	C168.337921,166.129547 168.011063,170.435486 170.499115,174.618484 
	C173.971527,180.456375 177.826401,186.125107 182.062286,191.431427 
	C185.261230,195.438782 189.917435,197.224854 195.062836,195.433075 
	C199.842072,193.768829 201.120010,189.685181 201.226440,185.020477 
	C201.267853,183.204758 201.612274,181.395950 201.767792,179.146149 
z"/>
<path fill="#FDFAF9" opacity="1.000000" stroke="none" 
	d="
M310.398926,112.398758 
	C311.953094,115.207199 313.401825,117.797180 314.228394,120.572464 
	C314.578583,121.748276 313.691681,124.468773 313.246796,124.495628 
	C311.577484,124.596413 309.596588,124.271111 308.224457,123.362534 
	C306.504822,122.223839 308.076416,113.800911 310.398926,112.398758 
z"/>
<path fill="#875D54" opacity="1.000000" stroke="none" 
	d="
M273.849365,31.000065 
	C275.944733,31.197966 277.779236,30.994799 279.173523,31.683233 
	C281.535339,32.849369 283.619110,34.578594 285.819763,36.071114 
	C283.929840,38.356991 282.385590,41.124184 280.055725,42.797432 
	C277.577423,44.577244 274.354919,45.320751 270.181366,47.043434 
	C272.821594,47.686291 274.564514,47.644249 275.643707,48.469818 
	C277.944885,50.230152 281.572296,52.455971 281.553741,54.462341 
	C281.533051,56.694363 278.466461,59.808250 276.001221,60.896378 
	C272.210907,62.569344 267.802338,62.841553 263.127930,63.818497 
	C267.022339,67.129379 272.829132,69.435654 270.462585,75.798965 
	C268.375061,81.411919 263.556427,83.415451 257.455383,83.009216 
	C266.002167,95.064751 265.869873,95.456329 250.617661,104.692833 
	C252.849442,106.394264 255.556519,107.707245 257.106781,109.855141 
	C258.599701,111.923553 260.197998,115.403282 259.408661,117.276146 
	C258.279572,119.955055 255.152390,123.385277 252.645752,123.585815 
	C245.648621,124.145576 238.494064,123.350502 231.989426,118.518990 
	C236.866364,115.235458 244.552505,115.579018 244.891037,108.132713 
	C245.204880,101.229553 238.647949,99.129654 234.281448,95.460030 
	C244.205856,91.220467 245.061829,79.420677 229.911514,71.919716 
	C235.213989,68.968109 240.754074,66.104691 239.780624,59.088245 
	C239.012482,53.551735 234.162857,49.897106 224.308365,47.110329 
	C227.042465,44.883030 229.002716,42.797607 231.378067,41.436707 
	C241.014023,35.915989 251.459076,32.889023 262.526611,31.986063 
	C266.150635,31.690393 269.769409,31.330490 273.849365,31.000065 
z"/>
<path fill="#323434" opacity="1.000000" stroke="none" 
	d="
M153.623474,245.090820 
	C138.050308,245.840836 127.527962,236.437912 128.478790,223.057510 
	C129.259995,212.064133 137.798340,204.072159 148.980774,203.867477 
	C160.524506,203.656174 169.427414,211.403748 170.850723,222.899368 
	C172.233795,234.069962 165.852753,242.490265 153.623474,245.090820 
z"/>
</svg>