<!DOCTYPE svg PUBLIC "-//W3C//DTD SVG 1.1//EN" "http://www.w3.org/Graphics/SVG/1.1/DTD/svg11.dtd">
<!-- Uploaded to: SVG Repo, www.svgrepo.com, Transformed by: SVG Repo Mixer Tools -->
<svg fill="#2ca9bc" width="800px" height="800px" viewBox="-2.4 -2.4 28.80 28.80" id="video-recorder-2" data-name="Flat Color" xmlns="http://www.w3.org/2000/svg" class="icon flat-color" stroke="#2ca9bc">
<g id="SVGRepo_bgCarrier" stroke-width="0">
<rect x="-2.4" y="-2.4" width="28.80" height="28.80" rx="14.4" fill="#7ed0ec7a" strokewidth="0"/>
</g>
<g id="SVGRepo_tracerCarrier" stroke-linecap="round" stroke-linejoin="round"/>
<g id="SVGRepo_iconCarrier">
<path id="secondary" d="M21.11,6.34a2,2,0,0,0-1.88-.18L14.62,8.08A1,1,0,0,0,14,9v6a1,1,0,0,0,.62.92l4.61,1.92A1.9,1.9,0,0,0,20,18a1.94,1.94,0,0,0,1.11-.34A2,2,0,0,0,22,16V8A2,2,0,0,0,21.11,6.34Z" style="fill: #2ca9bc2ca9bc;"/>
<rect id="primary" x="2" y="5" width="14" height="14" rx="2" style="fill: #2ca9bc;"/>
</g>
</svg>